<svg width="168" height="179" viewBox="0 0 168 179" fill="none" xmlns="http://www.w3.org/2000/svg">
<path d="M1.6667 170.135C1.48605 162.174 2.3501 154.225 4.23676 146.491C5.34533 141.525 6.79727 136.066 8.5234 130.302C10.3372 124.122 12.578 118.075 15.2296 112.205C16.6688 109.05 18.314 105.993 20.1546 103.054C22.029 99.98 24.1764 97.0808 26.5708 94.3916C28.9925 91.6079 31.7358 89.1208 34.7432 86.9822C37.7503 84.7786 41.0435 82.994 44.5323 81.6776L45.1155 81.4753C45.1267 81.6858 45.0991 81.9115 45.0978 82.1359C45.0942 90.6111 47.8445 98.8596 52.9348 105.64C55.5536 109.052 58.8396 111.895 62.5927 113.997C66.5224 116.201 70.9514 117.362 75.4569 117.369C77.8323 117.444 80.2045 117.141 82.4841 116.471C85.0443 115.738 87.4035 114.431 89.3823 112.651C91.2599 110.873 92.7409 108.72 93.7283 106.331C94.7158 103.942 95.1874 101.371 95.1125 98.787C94.9745 94.1056 93.1992 89.62 90.0955 86.1098C87.2718 82.879 83.8389 80.2358 79.9931 78.3312C76.2278 76.4255 72.1909 75.112 68.0251 74.437C62.8242 73.6062 57.5201 73.6672 52.3404 74.6172C52.5904 73.4538 52.9175 72.3083 53.3196 71.1884C55.6439 64.5637 59.4126 58.5387 64.3532 53.5493C68.9285 48.8657 74.187 44.9014 79.95 41.791C84.9686 39.0488 90.3035 36.9292 95.8365 35.479C100.567 34.3547 105.39 33.659 110.245 33.4004C117.838 32.9173 125.461 33.2676 132.978 34.445C138.026 35.1944 143.011 36.3253 147.889 37.8279C151.795 39.06 154.582 40.0872 156.726 40.9372C158.599 41.6433 159.814 42.1597 160.77 42.5183L159.284 42.8605C155.046 43.8358 151.229 44.7889 148.029 45.6699C141.642 47.4445 137.638 48.8559 137.798 49.6259C137.958 50.3958 141.962 50.2375 148.466 49.4198C151.731 49.0235 155.582 48.4512 159.86 47.7376L161.482 47.4674C162.182 47.3586 162.871 47.1899 163.541 46.9631C163.969 46.8105 164.383 46.6209 164.778 46.3966C165.281 46.1124 165.742 45.7596 166.148 45.3482C166.983 44.5011 167.526 43.4095 167.698 42.2323C167.823 40.7203 167.661 39.1981 167.222 37.7457L166.484 34.3018C162.04 15.2754 157.303 0.169285 155.862 0.627794C154.421 1.08629 156.833 16.8822 161.264 35.9225L161.872 38.4234C160.974 37.796 160.036 37.2284 159.063 36.7245C156.194 35.1623 153.21 33.8201 150.138 32.7095C145.099 30.8292 139.899 29.4164 134.601 28.4889C126.685 27.0339 118.625 26.5156 110.588 26.9445C105.298 27.2057 100.045 27.9595 94.8951 29.1963C88.7719 30.7638 82.8694 33.0914 77.3254 36.1248C70.9013 39.5889 65.0471 44.0173 59.9669 49.2556C54.2713 55.0467 49.9479 62.041 47.315 69.7239C46.5471 71.9345 46.0052 74.2172 45.6976 76.5371C44.9065 76.8031 44.1155 77.0691 43.3536 77.3863C39.4647 78.918 35.7999 80.9659 32.4578 83.4748C29.2078 85.8946 26.251 88.6846 23.6472 91.7885C21.1351 94.7268 18.8954 97.8871 16.9557 101.231C15.0942 104.336 13.4402 107.561 12.0047 110.884C9.41089 116.948 7.26814 123.194 5.59388 129.573C3.9907 135.497 2.70506 141.022 1.73697 146.147C0.097659 154.09 -0.358801 162.231 0.382357 170.308C0.608982 172.447 0.999686 174.565 1.55103 176.644C1.96884 178.047 2.18951 178.722 2.335 178.727C2.48049 178.733 1.92045 175.649 1.69163 170.107L1.6667 170.135ZM51.5932 81.6616C51.5859 81.0288 51.6313 80.3932 51.6767 79.7575C56.6787 78.7838 61.818 78.741 66.8363 79.6314C70.4995 80.2904 74.0405 81.5052 77.3368 83.2336C80.5873 84.8996 83.4769 87.1906 85.8396 89.9752C88.0993 92.6092 89.3692 95.948 89.4306 99.4163C89.481 101.119 89.1719 102.814 88.5234 104.389C87.8749 105.964 86.9015 107.385 85.6667 108.559C82.9461 110.678 79.5331 111.709 76.0925 111.451C72.5198 111.401 69.0194 110.436 65.9249 108.65C62.867 106.853 60.2031 104.458 58.0926 101.609C55.9564 98.76 54.3024 95.5805 53.1964 92.1969C52.0652 88.8108 51.5147 85.2583 51.5683 81.6893" fill="#FF914D"/>
</svg>
