<svg width="84" height="84" viewBox="0 0 84 84" fill="none" xmlns="http://www.w3.org/2000/svg">
<circle cx="41.6598" cy="41.9115" r="41.6413" fill="#8C52FF"/>
<g clip-path="url(#clip0_104_55)">
<path d="M51.25 59.9688H29.75C27.9681 59.9688 26.2591 59.2609 24.9991 58.0009C23.7391 56.7409 23.0312 55.0319 23.0312 53.25V34.4375C23.0312 34.0811 23.1728 33.7393 23.4248 33.4873C23.6768 33.2353 24.0186 33.0938 24.375 33.0938H51.25C53.0319 33.0938 54.7409 33.8016 56.0009 35.0616C57.2609 36.3216 57.9688 38.0306 57.9688 39.8125V53.25C57.9688 55.0319 57.2609 56.7409 56.0009 58.0009C54.7409 59.2609 53.0319 59.9688 51.25 59.9688ZM25.7188 35.7812V53.25C25.7188 54.3192 26.1435 55.3445 26.8995 56.1005C27.6555 56.8565 28.6808 57.2812 29.75 57.2812H51.25C52.3192 57.2812 53.3445 56.8565 54.1005 56.1005C54.8565 55.3445 55.2812 54.3192 55.2812 53.25V39.8125C55.2812 38.7433 54.8565 37.718 54.1005 36.962C53.3445 36.206 52.3192 35.7812 51.25 35.7812H25.7188Z" fill="white"/>
<path d="M53.9376 35.7813C53.5813 35.7813 53.2395 35.6397 52.9875 35.3877C52.7355 35.1357 52.5939 34.7939 52.5939 34.4375V30.7422C52.6196 30.2715 52.5388 29.801 52.3573 29.3659C52.1758 28.9308 51.8984 28.5423 51.5458 28.2294C51.2289 27.992 50.8622 27.8299 50.4734 27.7554C50.0845 27.6809 49.6839 27.6959 49.3017 27.7994L26.767 32.9191C26.4639 32.9873 26.1938 33.1585 26.0027 33.4035C25.8116 33.6485 25.7113 33.9522 25.7189 34.2628C25.7189 34.6192 25.5773 34.961 25.3253 35.213C25.0733 35.465 24.7315 35.6066 24.3751 35.6066C24.0188 35.6066 23.677 35.465 23.425 35.213C23.173 34.961 23.0314 34.6192 23.0314 34.2628C23.0235 33.3442 23.3296 32.4505 23.899 31.7296C24.4684 31.0087 25.2669 30.5039 26.1623 30.2988L48.7105 25.1791C49.4859 24.983 50.296 24.967 51.0786 25.1324C51.8612 25.2978 52.5956 25.6401 53.2255 26.1331C53.8915 26.6984 54.422 27.406 54.7778 28.2037C55.1337 29.0015 55.3058 29.869 55.2814 30.7422V34.4375C55.2814 34.7939 55.1398 35.1357 54.8878 35.3877C54.6358 35.6397 54.294 35.7813 53.9376 35.7813Z" fill="white"/>
<path d="M56.625 51.9062H47.2188C45.7932 51.9062 44.4261 51.34 43.4181 50.3319C42.41 49.3239 41.8438 47.9568 41.8438 46.5312C41.8438 45.1057 42.41 43.7386 43.4181 42.7306C44.4261 41.7225 45.7932 41.1562 47.2188 41.1562H56.625C56.9814 41.1562 57.3232 41.2978 57.5752 41.5498C57.8272 41.8018 57.9688 42.1436 57.9688 42.5V50.5625C57.9688 50.9189 57.8272 51.2607 57.5752 51.5127C57.3232 51.7647 56.9814 51.9062 56.625 51.9062ZM47.2188 43.8438C46.506 43.8438 45.8224 44.1269 45.3184 44.6309C44.8144 45.1349 44.5312 45.8185 44.5312 46.5312C44.5312 47.244 44.8144 47.9276 45.3184 48.4316C45.8224 48.9356 46.506 49.2188 47.2188 49.2188H55.2812V43.8438H47.2188Z" fill="white"/>
</g>
<defs>
<clipPath id="clip0_104_55">
<rect width="43" height="43" fill="white" transform="translate(19 21)"/>
</clipPath>
</defs>
</svg>
