<svg width="138" height="141" viewBox="0 0 138 141" fill="none" xmlns="http://www.w3.org/2000/svg">
<g filter="url(#filter0_d_1_5484)">
<circle cx="68.6598" cy="41.9115" r="41.6413" fill="#8C52FF"/>
</g>
<g clip-path="url(#clip0_1_5484)">
<path d="M78.25 59.9688H56.75C54.9681 59.9688 53.2591 59.2609 51.9991 58.0009C50.7391 56.7409 50.0312 55.0319 50.0312 53.25V34.4375C50.0312 34.0811 50.1728 33.7393 50.4248 33.4873C50.6768 33.2353 51.0186 33.0938 51.375 33.0938H78.25C80.0319 33.0938 81.7409 33.8016 83.0009 35.0616C84.2609 36.3216 84.9688 38.0306 84.9688 39.8125V53.25C84.9688 55.0319 84.2609 56.7409 83.0009 58.0009C81.7409 59.2609 80.0319 59.9688 78.25 59.9688ZM52.7188 35.7812V53.25C52.7188 54.3192 53.1435 55.3445 53.8995 56.1005C54.6555 56.8565 55.6808 57.2812 56.75 57.2812H78.25C79.3192 57.2812 80.3445 56.8565 81.1005 56.1005C81.8565 55.3445 82.2812 54.3192 82.2812 53.25V39.8125C82.2812 38.7433 81.8565 37.718 81.1005 36.962C80.3445 36.206 79.3192 35.7812 78.25 35.7812H52.7188Z" fill="white"/>
<path d="M80.9376 35.7813C80.5813 35.7813 80.2395 35.6397 79.9875 35.3877C79.7355 35.1357 79.5939 34.7939 79.5939 34.4375V30.7422C79.6196 30.2715 79.5388 29.801 79.3573 29.3659C79.1758 28.9308 78.8984 28.5423 78.5458 28.2294C78.2289 27.992 77.8622 27.8299 77.4734 27.7554C77.0845 27.6809 76.6839 27.6959 76.3017 27.7994L53.767 32.9191C53.4639 32.9873 53.1938 33.1585 53.0027 33.4035C52.8116 33.6485 52.7113 33.9522 52.7189 34.2628C52.7189 34.6192 52.5773 34.961 52.3253 35.213C52.0733 35.465 51.7315 35.6066 51.3751 35.6066C51.0188 35.6066 50.677 35.465 50.425 35.213C50.173 34.961 50.0314 34.6192 50.0314 34.2628C50.0235 33.3442 50.3296 32.4505 50.899 31.7296C51.4684 31.0087 52.2669 30.5039 53.1623 30.2988L75.7105 25.1791C76.4859 24.983 77.296 24.967 78.0786 25.1324C78.8612 25.2978 79.5956 25.6401 80.2255 26.1331C80.8915 26.6984 81.422 27.406 81.7778 28.2037C82.1337 29.0015 82.3058 29.869 82.2814 30.7422V34.4375C82.2814 34.7939 82.1398 35.1357 81.8878 35.3877C81.6358 35.6397 81.294 35.7813 80.9376 35.7813Z" fill="white"/>
<path d="M83.625 51.9062H74.2188C72.7932 51.9062 71.4261 51.34 70.4181 50.3319C69.41 49.3239 68.8438 47.9568 68.8438 46.5312C68.8438 45.1057 69.41 43.7386 70.4181 42.7306C71.4261 41.7225 72.7932 41.1562 74.2188 41.1562H83.625C83.9814 41.1562 84.3232 41.2978 84.5752 41.5498C84.8272 41.8018 84.9688 42.1436 84.9688 42.5V50.5625C84.9688 50.9189 84.8272 51.2607 84.5752 51.5127C84.3232 51.7647 83.9814 51.9062 83.625 51.9062ZM74.2188 43.8438C73.506 43.8438 72.8224 44.1269 72.3184 44.6309C71.8144 45.1349 71.5312 45.8185 71.5312 46.5312C71.5312 47.244 71.8144 47.9276 72.3184 48.4316C72.8224 48.9356 73.506 49.2188 74.2188 49.2188H82.2812V43.8438H74.2188Z" fill="white"/>
</g>
<defs>
<filter id="filter0_d_1_5484" x="0.0185547" y="0.270264" width="137.282" height="140.283" filterUnits="userSpaceOnUse" color-interpolation-filters="sRGB">
<feFlood flood-opacity="0" result="BackgroundImageFix"/>
<feColorMatrix in="SourceAlpha" type="matrix" values="0 0 0 0 0 0 0 0 0 0 0 0 0 0 0 0 0 0 127 0" result="hardAlpha"/>
<feMorphology radius="8" operator="erode" in="SourceAlpha" result="effect1_dropShadow_1_5484"/>
<feOffset dy="30"/>
<feGaussianBlur stdDeviation="17.5"/>
<feColorMatrix type="matrix" values="0 0 0 0 0.54902 0 0 0 0 0.321569 0 0 0 0 1 0 0 0 0.11 0"/>
<feBlend mode="normal" in2="BackgroundImageFix" result="effect1_dropShadow_1_5484"/>
<feBlend mode="normal" in="SourceGraphic" in2="effect1_dropShadow_1_5484" result="shape"/>
</filter>
<clipPath id="clip0_1_5484">
<rect width="43" height="43" fill="white" transform="translate(46 21)"/>
</clipPath>
</defs>
</svg>
