<svg width="138" height="141" viewBox="0 0 138 141" fill="none" xmlns="http://www.w3.org/2000/svg">
<g filter="url(#filter0_d_203_3481)">
<circle cx="68.7741" cy="42.1544" r="41.6413" fill="#8C52FF"/>
</g>
<path d="M75.8016 58.4514L71.4281 59.5262L66.8153 59.1377C66.2779 59.0924 65.7471 59.3372 65.4346 59.7749L64.8096 60.6554C64.5612 61.0064 64.4736 61.448 64.5704 61.8675C64.6684 62.2858 64.9417 62.6445 65.3222 62.853L73.269 67.1938C73.4952 67.3168 73.7501 67.3789 74.0051 67.3789C74.2117 67.3789 74.4183 67.3388 74.6131 67.2546L76.1886 66.5773C76.7233 66.3481 77.0751 65.8483 77.1064 65.2707L77.2293 63.0058L77.6752 60.1569C77.7549 59.6557 77.5758 59.152 77.198 58.8075C76.8227 58.4618 76.301 58.3271 75.8016 58.4514ZM75.5545 62.7274C75.5479 62.7611 75.5375 62.8608 75.5348 62.8944L75.4159 65.0739L74.0143 65.676L66.3093 61.4687L66.7682 60.8238L71.2816 61.2032C71.449 61.2162 71.6203 61.2045 71.7785 61.1657L75.9572 60.1465L75.5545 62.7274ZM56.2653 43.5139C56.0169 43.3054 55.6665 43.2549 55.3697 43.3844L52.1899 44.7778C51.8826 44.9125 51.6826 45.2155 51.6826 45.5483L51.6839 49.296C51.6839 49.3102 51.6852 49.3244 51.6852 49.3387L51.9467 54.4202C51.9598 54.6507 52.0657 54.8656 52.2422 55.0158L54.7826 57.1771C54.9408 57.3118 55.1369 57.3805 55.337 57.3805C55.4677 57.3805 55.5972 57.3507 55.7188 57.2911L58.9548 55.6828C59.2411 55.5403 59.4215 55.2502 59.4228 54.933L59.4516 46.5959C59.4516 46.3499 59.3431 46.1129 59.1522 45.9523L56.2653 43.5139ZM57.7257 54.4098L55.4625 55.5338L53.6281 53.9734L53.3862 49.2739L53.3849 46.0961L55.5697 45.1391L57.7519 46.9805L57.7257 54.4098ZM89.6137 47.7744L81.9192 44.0332C81.7767 43.9646 81.7323 43.8428 81.7205 43.7768C81.7087 43.7107 81.7009 43.5825 81.8055 43.4647C82.42 42.7848 82.5037 41.7709 82.0082 41.0017L81.8042 40.6844C81.3963 40.0447 80.6824 39.6834 79.9005 39.7378L76.4854 39.9968C76.3546 40.0149 76.2291 39.9476 76.1546 39.8414L73.7985 36.4589L72.4008 33.3497C72.2439 32.9987 71.9929 32.7022 71.6765 32.4885L68.5124 30.3518C68.383 30.265 68.3241 30.111 68.362 29.962L68.9491 27.6557C68.9543 27.635 68.9766 27.5236 68.9805 27.5042L69.3675 25.2742C69.3989 25.0903 69.6081 24.944 69.7506 24.9725L71.0764 25.0437C72.1943 25.0839 73.1905 24.2344 73.252 23.109L73.3566 21.2119C73.4037 20.321 72.8702 19.5077 72.0243 19.1892L69.4316 18.2089C69.391 18.1933 69.3518 18.1713 69.3178 18.1389L67.5449 16.5474C67.0467 16.1019 66.3577 15.9219 65.7066 16.067L64.1023 16.4218C63.7218 16.506 63.374 16.6937 63.1008 16.9631L61.2834 18.7385C61.1997 18.8201 61.0833 18.8564 60.967 18.8395L59.1574 18.5533C58.5311 18.4562 57.9062 18.6388 57.4394 19.061L56.7412 19.6903C56.6458 19.7745 56.5124 19.8056 56.3882 19.7706L54.4571 19.2047C53.7445 18.9949 52.9718 19.1814 52.4383 19.6903L50.7948 21.252C50.7438 21.3013 50.6785 21.3336 50.6078 21.3479L49.4677 21.5564C48.3891 21.7532 47.653 22.7542 47.7942 23.8342L48.057 25.8324C48.0635 25.8829 48.0596 25.936 48.0439 25.9852L47.483 27.7865C47.3431 28.2371 47.364 28.7266 47.5444 29.163L48.7042 31.9744C48.9186 32.4963 49.3448 32.912 49.8757 33.114C50.4078 33.316 51.0053 33.294 51.5179 33.0466L56.0012 30.9048C56.128 30.8426 56.2771 30.8594 56.3882 30.9436L58.7155 32.7281C58.7678 32.7682 58.807 32.82 58.8319 32.8796L60.9225 37.9662C61.0245 38.211 61.1696 38.4311 61.3553 38.6202L66.7447 44.0941C66.8192 44.1666 66.8951 44.2326 66.98 44.2961L69.6695 46.2864C69.8879 46.4483 70.1337 46.5662 70.4043 46.6335L72.865 47.2486C72.963 47.2745 73.0441 47.3341 73.0951 47.4208L73.6808 48.4257C73.9423 48.8751 74.362 49.2066 74.8615 49.3594L76.8201 49.9577C76.8959 49.981 76.9613 50.0276 77.0097 50.0898L78.695 52.3689L79.6652 55.3603C79.6887 55.4328 79.69 55.5066 79.6665 55.5805L78.5237 59.253C78.3315 59.872 78.4466 60.5518 78.8362 61.075L79.8691 62.4593C80.0286 62.673 80.2823 62.8012 80.5516 62.8012C80.5542 62.8012 80.5569 62.8012 80.5595 62.8012C80.8314 62.7986 81.0864 62.6665 81.2433 62.4477L84.427 58.0202C84.5041 57.9127 84.5682 57.7987 84.6257 57.6744L85.7828 55.1272C86.1136 54.3994 85.9842 53.5409 85.4547 52.94L83.8399 51.1102C83.7196 50.9742 83.7196 50.7683 83.8399 50.6311L84.3015 50.1053C84.4113 49.981 84.5917 49.9486 84.7408 50.0173L87.7872 51.487C88.7704 51.9636 89.9681 51.5971 90.5094 50.6531C90.7944 50.1597 90.8598 49.5653 90.6911 49.024C90.5198 48.4788 90.1289 48.0243 89.6137 47.7744ZM89.0293 49.8178C88.9325 49.9914 88.7142 50.0587 88.5272 49.9706L85.4808 48.5008C84.644 48.0968 83.6268 48.3001 83.0136 48.9994L82.5534 49.5239C81.8787 50.2931 81.88 51.4495 82.5573 52.2148L84.1707 54.0433C84.2649 54.1508 84.2884 54.3036 84.2296 54.4344L83.0371 57.0438L80.5359 60.5234L80.1999 60.0727C80.128 59.9782 80.1084 59.8603 80.1437 59.7477L81.2851 56.0764C81.4133 55.6737 81.4106 55.2476 81.2799 54.8436L80.3084 51.8496C80.2378 51.6334 80.1332 51.434 79.9999 51.2565L78.3695 49.0836C78.1106 48.7365 77.7392 48.4762 77.3195 48.348L75.3583 47.7498C75.2707 47.7226 75.1949 47.663 75.1478 47.5827L74.5634 46.5791C74.2862 46.1026 73.8168 45.7503 73.2781 45.6169L70.8188 45.0018C70.7704 44.9889 70.726 44.9695 70.6867 44.9397L67.9528 42.9104L62.5699 37.4444C62.5372 37.4107 62.5098 37.3693 62.4928 37.3278L60.4048 32.2477C60.2688 31.9135 60.0439 31.6196 59.7536 31.3982L57.4263 29.6137C57.0563 29.3288 56.6118 29.1825 56.162 29.1825C55.8574 29.1825 55.5488 29.2511 55.2612 29.3884L50.7778 31.5315C50.6536 31.5898 50.5425 31.5639 50.4849 31.5432C50.43 31.5212 50.3294 31.4668 50.2771 31.3399L49.1173 28.5272C49.0846 28.4495 49.0807 28.3627 49.1056 28.2824L49.6665 26.4811C49.7528 26.2014 49.7789 25.901 49.741 25.6135L49.4782 23.6193C49.452 23.4263 49.5841 23.2476 49.7776 23.2126L50.919 23.0028C51.3165 22.929 51.6813 22.7451 51.9729 22.4667L53.6163 20.905C53.7105 20.8143 53.8504 20.782 53.9746 20.8195L55.9057 21.3854C56.5882 21.59 57.3518 21.4165 57.8853 20.9361L58.5834 20.3067C58.6645 20.2329 58.7822 20.2031 58.8881 20.2174L60.7002 20.501C61.3461 20.611 62.0129 20.3922 62.4771 19.9364L64.2971 18.1597C64.3442 18.1117 64.4056 18.0794 64.4736 18.0651L66.0779 17.709C66.1903 17.6883 66.3158 17.7168 66.4048 17.7945L68.1751 19.386C68.3686 19.5608 68.5909 19.6942 68.8314 19.7836L71.4215 20.7587C71.5719 20.8156 71.6673 20.9607 71.6595 21.1187L71.5549 23.0158C71.5484 23.1466 71.4751 23.2282 71.4333 23.2657C71.3915 23.302 71.2973 23.3836 71.1679 23.3577L69.8434 23.2864C68.753 23.2346 67.8704 23.9611 67.6926 24.9855L67.3004 27.2426L66.7133 29.5489C66.5041 30.3777 66.8428 31.257 67.5553 31.7387L70.7207 33.8754C70.7756 33.913 70.8201 33.9661 70.8489 34.0295L72.2492 37.1452C72.3028 37.2618 72.3642 37.3719 72.4374 37.4742L74.7582 40.7971C75.1766 41.3927 75.8866 41.7268 76.6161 41.6725L80.0286 41.4135C80.1921 41.4005 80.2967 41.4666 80.3699 41.5831L80.5752 41.903C80.6628 42.0389 80.6484 42.2202 80.5386 42.342C80.1045 42.8237 79.928 43.4647 80.0535 44.0979C80.179 44.7312 80.5856 45.2582 81.1714 45.5418L88.8659 49.283C88.9966 49.3478 89.0463 49.4552 89.0633 49.5135C89.0816 49.5744 89.1012 49.6922 89.0293 49.8178Z" fill="white" stroke="white"/>
<defs>
<filter id="filter0_d_203_3481" x="0.132812" y="0.513092" width="137.282" height="140.283" filterUnits="userSpaceOnUse" color-interpolation-filters="sRGB">
<feFlood flood-opacity="0" result="BackgroundImageFix"/>
<feColorMatrix in="SourceAlpha" type="matrix" values="0 0 0 0 0 0 0 0 0 0 0 0 0 0 0 0 0 0 127 0" result="hardAlpha"/>
<feMorphology radius="8" operator="erode" in="SourceAlpha" result="effect1_dropShadow_203_3481"/>
<feOffset dy="30"/>
<feGaussianBlur stdDeviation="17.5"/>
<feColorMatrix type="matrix" values="0 0 0 0 0.54902 0 0 0 0 0.321569 0 0 0 0 1 0 0 0 0.11 0"/>
<feBlend mode="normal" in2="BackgroundImageFix" result="effect1_dropShadow_203_3481"/>
<feBlend mode="normal" in="SourceGraphic" in2="effect1_dropShadow_203_3481" result="shape"/>
</filter>
</defs>
</svg>
