<svg width="84" height="84" viewBox="0 0 84 84" fill="none" xmlns="http://www.w3.org/2000/svg">
<circle cx="41.6569" cy="41.9115" r="41.6413" fill="#8C52FF"/>
<path d="M21.0864 55.5223C21.6661 55.5223 22.1216 55.0668 22.1216 54.4871V43.6594L28.3739 40.3055V49.1871C28.3739 49.7668 28.8294 50.2223 29.4091 50.2223C29.9888 50.2223 30.4442 49.7668 30.4442 49.1871V36.848L20.072 42.4172V54.4871C20.0513 55.0461 20.5067 55.5223 21.0864 55.5223Z" fill="white"/>
<path d="M33.5508 47.6758C34.1305 47.6758 34.5859 47.2203 34.5859 46.6406V28.3391L40.8383 24.9852V54.7562C40.8383 55.3359 41.2938 55.7914 41.8734 55.7914C42.4531 55.7914 42.9086 55.3359 42.9086 54.7562V21.5277L32.5156 27.0969V46.6406C32.5156 47.1996 32.9711 47.6758 33.5508 47.6758Z" fill="white"/>
<path d="M46.0132 54.4457C46.5928 54.4457 47.0483 53.9902 47.0483 53.4105V33.6805L53.3007 30.3266V48.1934C53.3007 48.773 53.7561 49.2285 54.3358 49.2285C54.9155 49.2285 55.371 48.773 55.371 48.1934V26.8691L44.9987 32.4383V53.4105C44.978 53.9902 45.4542 54.4457 46.0132 54.4457Z" fill="white"/>
<path d="M66.7575 46.268C66.5711 45.9574 66.2399 45.7504 65.8672 45.7504H58.7247C58.352 45.7504 58.0207 45.9574 57.8344 46.268C57.6481 46.5785 57.6481 46.9719 57.8344 47.3031L59.118 49.5184L53.4247 52.9758C52.5551 53.5141 51.7063 54.0316 50.8368 54.5699C50.2157 54.9633 49.5946 55.3359 48.9942 55.7293C47.3793 56.7645 45.9508 57.6961 44.6258 58.607C43.9426 59.0625 43.2801 59.5387 42.5969 59.9941L33.3219 50.9262L16.5938 61.5676C16.1176 61.8781 15.9727 62.5199 16.2832 62.9961C16.4903 63.3066 16.8215 63.4723 17.1528 63.4723C17.3391 63.4723 17.5254 63.4102 17.7118 63.3066L33.0321 53.5555L42.3899 62.6855L43.6528 61.7746C44.3567 61.2777 45.0606 60.7809 45.7852 60.3047C47.0895 59.4145 48.4973 58.5035 50.1122 57.4684C50.7125 57.075 51.3336 56.7023 51.934 56.309C52.7829 55.7707 53.6524 55.2531 54.5012 54.7148L59.7391 51.5059L60.1532 51.2574L61.4161 53.452C61.6024 53.7625 61.9336 53.9695 62.3063 53.9695C62.679 53.9695 63.0102 53.7625 63.1965 53.452L66.7782 47.2617C66.9438 46.9926 66.9438 46.5992 66.7575 46.268ZM62.2856 50.9055L60.5051 47.8207H64.0661L62.2856 50.9055Z" fill="white"/>
</svg>
