<svg width="138" height="141" viewBox="0 0 138 141" fill="none" xmlns="http://www.w3.org/2000/svg">
<g filter="url(#filter0_d_1_5485)">
<circle cx="68.6569" cy="41.9115" r="41.6413" fill="#8C52FF"/>
</g>
<path d="M48.0864 55.5223C48.6661 55.5223 49.1216 55.0668 49.1216 54.4871V43.6594L55.3739 40.3055V49.1871C55.3739 49.7668 55.8294 50.2223 56.4091 50.2223C56.9888 50.2223 57.4442 49.7668 57.4442 49.1871V36.848L47.072 42.4172V54.4871C47.0513 55.0461 47.5067 55.5223 48.0864 55.5223Z" fill="white"/>
<path d="M60.5508 47.6758C61.1305 47.6758 61.5859 47.2203 61.5859 46.6406V28.3391L67.8383 24.9852V54.7562C67.8383 55.3359 68.2938 55.7914 68.8734 55.7914C69.4531 55.7914 69.9086 55.3359 69.9086 54.7562V21.5277L59.5156 27.0969V46.6406C59.5156 47.1996 59.9711 47.6758 60.5508 47.6758Z" fill="white"/>
<path d="M73.0132 54.4457C73.5928 54.4457 74.0483 53.9902 74.0483 53.4105V33.6805L80.3007 30.3266V48.1934C80.3007 48.773 80.7561 49.2285 81.3358 49.2285C81.9155 49.2285 82.371 48.773 82.371 48.1934V26.8691L71.9987 32.4383V53.4105C71.978 53.9902 72.4542 54.4457 73.0132 54.4457Z" fill="white"/>
<path d="M93.7575 46.268C93.5711 45.9574 93.2399 45.7504 92.8672 45.7504H85.7247C85.352 45.7504 85.0207 45.9574 84.8344 46.268C84.6481 46.5785 84.6481 46.9719 84.8344 47.3031L86.118 49.5184L80.4247 52.9758C79.5551 53.5141 78.7063 54.0316 77.8368 54.5699C77.2157 54.9633 76.5946 55.3359 75.9942 55.7293C74.3793 56.7645 72.9508 57.6961 71.6258 58.607C70.9426 59.0625 70.2801 59.5387 69.5969 59.9941L60.3219 50.9262L43.5938 61.5676C43.1176 61.8781 42.9727 62.5199 43.2832 62.9961C43.4903 63.3066 43.8215 63.4723 44.1528 63.4723C44.3391 63.4723 44.5254 63.4102 44.7118 63.3066L60.0321 53.5555L69.3899 62.6855L70.6528 61.7746C71.3567 61.2777 72.0606 60.7809 72.7852 60.3047C74.0895 59.4145 75.4973 58.5035 77.1122 57.4684C77.7125 57.075 78.3336 56.7023 78.934 56.309C79.7829 55.7707 80.6524 55.2531 81.5012 54.7148L86.7391 51.5059L87.1532 51.2574L88.4161 53.452C88.6024 53.7625 88.9336 53.9695 89.3063 53.9695C89.679 53.9695 90.0102 53.7625 90.1965 53.452L93.7782 47.2617C93.9438 46.9926 93.9438 46.5992 93.7575 46.268ZM89.2856 50.9055L87.5051 47.8207H91.0661L89.2856 50.9055Z" fill="white"/>
<defs>
<filter id="filter0_d_1_5485" x="0.015625" y="0.270264" width="137.282" height="140.283" filterUnits="userSpaceOnUse" color-interpolation-filters="sRGB">
<feFlood flood-opacity="0" result="BackgroundImageFix"/>
<feColorMatrix in="SourceAlpha" type="matrix" values="0 0 0 0 0 0 0 0 0 0 0 0 0 0 0 0 0 0 127 0" result="hardAlpha"/>
<feMorphology radius="8" operator="erode" in="SourceAlpha" result="effect1_dropShadow_1_5485"/>
<feOffset dy="30"/>
<feGaussianBlur stdDeviation="17.5"/>
<feColorMatrix type="matrix" values="0 0 0 0 0.54902 0 0 0 0 0.321569 0 0 0 0 1 0 0 0 0.11 0"/>
<feBlend mode="normal" in2="BackgroundImageFix" result="effect1_dropShadow_1_5485"/>
<feBlend mode="normal" in="SourceGraphic" in2="effect1_dropShadow_1_5485" result="shape"/>
</filter>
</defs>
</svg>
