<svg width="138" height="141" viewBox="0 0 138 141" fill="none" xmlns="http://www.w3.org/2000/svg">
<g filter="url(#filter0_d_207_414)">
<circle cx="68.6569" cy="42.1544" r="41.6413" fill="#8C52FF"/>
</g>
<path d="M89.7793 27.3452C89.7819 25.9313 89.2318 24.5723 88.2463 23.5577C87.2609 22.543 85.9178 21.953 84.5034 21.9133C83.089 21.8736 81.7149 22.3874 80.674 23.3451C79.6331 24.3028 79.0075 25.6289 78.9307 27.0407L62.0182 30.4199C61.6227 29.5987 61.0264 28.8904 60.2844 28.3604C59.5425 27.8304 58.6788 27.4958 57.7732 27.3876C56.8676 27.2793 55.9494 27.4009 55.1032 27.7411C54.2571 28.0813 53.5105 28.6291 52.9323 29.3339C52.3541 30.0387 51.963 30.8778 51.7953 31.7736C51.6275 32.6694 51.6883 33.593 51.9723 34.459C52.2562 35.3251 52.754 36.1056 53.4197 36.7286C54.0854 37.3515 54.8975 37.7968 55.781 38.0231V49.2804C54.8532 49.5181 54.0049 49.9969 53.3222 50.6682C52.6395 51.3394 52.1466 52.1792 51.8938 53.1023C51.6409 54.0254 51.637 54.9989 51.8824 55.9241C52.1278 56.8492 52.6138 57.6929 53.291 58.3697C53.9683 59.0464 54.8127 59.532 55.7385 59.7772C56.6644 60.0225 57.6386 60.0185 58.5625 59.7659C59.4863 59.5132 60.3267 59.0208 60.9985 58.3386C61.6703 57.6564 62.1495 56.8087 62.3874 55.8817H73.6533C73.8794 56.7652 74.3248 57.5774 74.9483 58.2434C75.5718 58.9093 76.3533 59.4074 77.2205 59.6916C78.0877 59.9757 79.0126 60.0368 79.9097 59.8692C80.8068 59.7016 81.6471 59.3106 82.3529 58.7325C83.0587 58.1544 83.6072 57.4077 83.9477 56.5617C84.2882 55.7156 84.4097 54.7974 84.301 53.8919C84.1923 52.9865 83.8568 52.1231 83.3257 51.3815C82.7945 50.6399 82.0848 50.0442 81.2622 49.6493L84.6443 32.7501C86.0289 32.6743 87.3321 32.0723 88.2868 31.0674C89.2415 30.0625 89.7755 28.7308 89.7793 27.3452ZM84.3395 24.6274C84.8775 24.6274 85.4033 24.7868 85.8506 25.0855C86.2979 25.3841 86.6465 25.8085 86.8524 26.3051C87.0582 26.8018 87.1121 27.3482 87.0071 27.8754C86.9022 28.4026 86.6432 28.8869 86.2628 29.2669C85.8824 29.647 85.3978 29.9059 84.8702 30.0107C84.3426 30.1156 83.7957 30.0618 83.2987 29.8561C82.8017 29.6504 82.3769 29.302 82.0781 28.8551C81.7792 28.4082 81.6197 27.8827 81.6197 27.3452C81.6205 26.6246 81.9073 25.9339 82.4172 25.4244C82.9271 24.9149 83.6184 24.6283 84.3395 24.6274ZM54.421 32.7807C54.421 32.2432 54.5805 31.7177 54.8794 31.2708C55.1783 30.8239 55.6031 30.4755 56.1 30.2698C56.597 30.0641 57.1439 30.0103 57.6715 30.1152C58.1991 30.22 58.6837 30.4789 59.0641 30.859C59.4445 31.239 59.7035 31.7233 59.8085 32.2505C59.9134 32.7777 59.8596 33.3241 59.6537 33.8208C59.4479 34.3174 59.0992 34.7418 58.652 35.0404C58.2047 35.3391 57.6788 35.4985 57.1409 35.4985C56.4198 35.4976 55.7285 35.211 55.2186 34.7015C54.7087 34.192 54.4219 33.5013 54.421 32.7807ZM57.1409 57.2406C56.603 57.2406 56.0771 57.0812 55.6298 56.7825C55.1825 56.4839 54.8339 56.0594 54.6281 55.5628C54.4222 55.0662 54.3683 54.5198 54.4733 53.9926C54.5782 53.4654 54.8373 52.9811 55.2177 52.601C55.598 52.221 56.0827 51.9621 56.6103 51.8573C57.1379 51.7524 57.6847 51.8062 58.1817 52.0119C58.6787 52.2176 59.1035 52.566 59.4024 53.0129C59.7012 53.4598 59.8608 53.9853 59.8608 54.5228C59.8599 55.2433 59.5731 55.9341 59.0632 56.4436C58.5533 56.9531 57.862 57.2397 57.1409 57.2406ZM73.6533 53.1639H62.3874C62.1437 52.2297 61.6551 51.3773 60.972 50.6947C60.2888 50.012 59.4358 49.5238 58.5008 49.2804V38.0231C59.612 37.7344 60.6027 37.1007 61.3304 36.2133C62.058 35.3259 62.485 34.2306 62.5498 33.0852L79.4623 29.706C79.9956 30.8011 80.8812 31.6859 81.9772 32.2187L78.5951 49.1178C77.4488 49.1827 76.3526 49.6094 75.4646 50.3365C74.5765 51.0636 73.9423 52.0536 73.6533 53.1639ZM78.8998 57.2406C78.3619 57.2406 77.836 57.0812 77.3887 56.7825C76.9415 56.4839 76.5928 56.0594 76.387 55.5628C76.1811 55.0662 76.1273 54.5198 76.2322 53.9926C76.3372 53.4654 76.5962 52.9811 76.9766 52.601C77.357 52.221 77.8416 51.9621 78.3692 51.8573C78.8968 51.7524 79.4437 51.8062 79.9407 52.0119C80.4377 52.2176 80.8624 52.566 81.1613 53.0129C81.4602 53.4598 81.6197 53.9853 81.6197 54.5228C81.6189 55.2433 81.332 55.9341 80.8221 56.4436C80.3122 56.9531 79.6209 57.2397 78.8998 57.2406Z" fill="white"/>
<defs>
<filter id="filter0_d_207_414" x="0.015625" y="0.513092" width="137.282" height="140.283" filterUnits="userSpaceOnUse" color-interpolation-filters="sRGB">
<feFlood flood-opacity="0" result="BackgroundImageFix"/>
<feColorMatrix in="SourceAlpha" type="matrix" values="0 0 0 0 0 0 0 0 0 0 0 0 0 0 0 0 0 0 127 0" result="hardAlpha"/>
<feMorphology radius="8" operator="erode" in="SourceAlpha" result="effect1_dropShadow_207_414"/>
<feOffset dy="30"/>
<feGaussianBlur stdDeviation="17.5"/>
<feColorMatrix type="matrix" values="0 0 0 0 0.54902 0 0 0 0 0.321569 0 0 0 0 1 0 0 0 0.11 0"/>
<feBlend mode="normal" in2="BackgroundImageFix" result="effect1_dropShadow_207_414"/>
<feBlend mode="normal" in="SourceGraphic" in2="effect1_dropShadow_207_414" result="shape"/>
</filter>
</defs>
</svg>
