<svg width="84" height="84" viewBox="0 0 84 84" fill="none" xmlns="http://www.w3.org/2000/svg">
<circle cx="41.7741" cy="42.1544" r="41.6413" fill="#8C52FF"/>
<path d="M48.8016 58.4514L44.4281 59.5262L39.8153 59.1377C39.2779 59.0924 38.7471 59.3372 38.4346 59.7749L37.8096 60.6554C37.5612 61.0064 37.4736 61.448 37.5704 61.8675C37.6684 62.2858 37.9417 62.6445 38.3222 62.853L46.269 67.1938C46.4952 67.3168 46.7501 67.3789 47.0051 67.3789C47.2117 67.3789 47.4183 67.3388 47.6131 67.2546L49.1886 66.5773C49.7233 66.3481 50.0751 65.8483 50.1064 65.2707L50.2293 63.0058L50.6752 60.1569C50.7549 59.6557 50.5758 59.152 50.198 58.8075C49.8227 58.4618 49.301 58.3271 48.8016 58.4514ZM48.5545 62.7274C48.5479 62.7611 48.5375 62.8608 48.5348 62.8944L48.4159 65.0739L47.0143 65.676L39.3093 61.4687L39.7682 60.8238L44.2816 61.2032C44.449 61.2162 44.6203 61.2045 44.7785 61.1657L48.9572 60.1465L48.5545 62.7274ZM29.2653 43.5139C29.0169 43.3054 28.6665 43.2549 28.3697 43.3844L25.1899 44.7778C24.8826 44.9125 24.6826 45.2155 24.6826 45.5483L24.6839 49.296C24.6839 49.3102 24.6852 49.3244 24.6852 49.3387L24.9467 54.4202C24.9598 54.6507 25.0657 54.8656 25.2422 55.0158L27.7826 57.1771C27.9408 57.3118 28.1369 57.3805 28.337 57.3805C28.4677 57.3805 28.5972 57.3507 28.7188 57.2911L31.9548 55.6828C32.2411 55.5403 32.4215 55.2502 32.4228 54.933L32.4516 46.5959C32.4516 46.3499 32.3431 46.1129 32.1522 45.9523L29.2653 43.5139ZM30.7257 54.4098L28.4625 55.5338L26.6281 53.9734L26.3862 49.2739L26.3849 46.0961L28.5697 45.1391L30.7519 46.9805L30.7257 54.4098ZM62.6137 47.7744L54.9192 44.0332C54.7767 43.9646 54.7323 43.8428 54.7205 43.7768C54.7087 43.7107 54.7009 43.5825 54.8055 43.4647C55.42 42.7848 55.5037 41.7709 55.0082 41.0017L54.8042 40.6844C54.3963 40.0447 53.6824 39.6834 52.9005 39.7378L49.4854 39.9968C49.3546 40.0149 49.2291 39.9476 49.1546 39.8414L46.7985 36.4589L45.4008 33.3497C45.2439 32.9987 44.9929 32.7022 44.6765 32.4885L41.5124 30.3518C41.383 30.265 41.3241 30.111 41.362 29.962L41.9491 27.6557C41.9543 27.635 41.9766 27.5236 41.9805 27.5042L42.3675 25.2742C42.3989 25.0903 42.6081 24.944 42.7506 24.9725L44.0764 25.0437C45.1943 25.0839 46.1905 24.2344 46.252 23.109L46.3566 21.2119C46.4037 20.321 45.8702 19.5077 45.0243 19.1892L42.4316 18.2089C42.391 18.1933 42.3518 18.1713 42.3178 18.1389L40.5449 16.5474C40.0467 16.1019 39.3577 15.9219 38.7066 16.067L37.1023 16.4218C36.7218 16.506 36.374 16.6937 36.1008 16.9631L34.2834 18.7385C34.1997 18.8201 34.0833 18.8564 33.967 18.8395L32.1574 18.5533C31.5311 18.4562 30.9062 18.6388 30.4394 19.061L29.7412 19.6903C29.6458 19.7745 29.5124 19.8056 29.3882 19.7706L27.4571 19.2047C26.7445 18.9949 25.9718 19.1814 25.4383 19.6903L23.7948 21.252C23.7438 21.3013 23.6785 21.3336 23.6078 21.3479L22.4677 21.5564C21.3891 21.7532 20.653 22.7542 20.7942 23.8342L21.057 25.8324C21.0635 25.8829 21.0596 25.936 21.0439 25.9852L20.483 27.7865C20.3431 28.2371 20.364 28.7266 20.5444 29.163L21.7042 31.9744C21.9186 32.4963 22.3448 32.912 22.8757 33.114C23.4078 33.316 24.0053 33.294 24.5179 33.0466L29.0012 30.9048C29.128 30.8426 29.2771 30.8594 29.3882 30.9436L31.7155 32.7281C31.7678 32.7682 31.807 32.82 31.8319 32.8796L33.9225 37.9662C34.0245 38.211 34.1696 38.4311 34.3553 38.6202L39.7447 44.0941C39.8192 44.1666 39.8951 44.2326 39.98 44.2961L42.6695 46.2864C42.8879 46.4483 43.1337 46.5662 43.4043 46.6335L45.865 47.2486C45.963 47.2745 46.0441 47.3341 46.0951 47.4208L46.6808 48.4257C46.9423 48.8751 47.362 49.2066 47.8615 49.3594L49.8201 49.9577C49.8959 49.981 49.9613 50.0276 50.0097 50.0898L51.695 52.3689L52.6652 55.3603C52.6887 55.4328 52.69 55.5066 52.6665 55.5805L51.5237 59.253C51.3315 59.872 51.4466 60.5518 51.8362 61.075L52.8691 62.4593C53.0286 62.673 53.2823 62.8012 53.5516 62.8012C53.5542 62.8012 53.5569 62.8012 53.5595 62.8012C53.8314 62.7986 54.0864 62.6665 54.2433 62.4477L57.427 58.0202C57.5041 57.9127 57.5682 57.7987 57.6257 57.6744L58.7828 55.1272C59.1136 54.3994 58.9842 53.5409 58.4547 52.94L56.8399 51.1102C56.7196 50.9742 56.7196 50.7683 56.8399 50.6311L57.3015 50.1053C57.4113 49.981 57.5917 49.9486 57.7408 50.0173L60.7872 51.487C61.7704 51.9636 62.9681 51.5971 63.5094 50.6531C63.7944 50.1597 63.8598 49.5653 63.6911 49.024C63.5198 48.4788 63.1289 48.0243 62.6137 47.7744ZM62.0293 49.8178C61.9325 49.9914 61.7142 50.0587 61.5272 49.9706L58.4808 48.5008C57.644 48.0968 56.6268 48.3001 56.0136 48.9994L55.5534 49.5239C54.8787 50.2931 54.88 51.4495 55.5573 52.2148L57.1707 54.0433C57.2649 54.1508 57.2884 54.3036 57.2296 54.4344L56.0371 57.0438L53.5359 60.5234L53.1999 60.0727C53.128 59.9782 53.1084 59.8603 53.1437 59.7477L54.2851 56.0764C54.4133 55.6737 54.4106 55.2476 54.2799 54.8436L53.3084 51.8496C53.2378 51.6334 53.1332 51.434 52.9999 51.2565L51.3695 49.0836C51.1106 48.7365 50.7392 48.4762 50.3195 48.348L48.3583 47.7498C48.2707 47.7226 48.1949 47.663 48.1478 47.5827L47.5634 46.5791C47.2862 46.1026 46.8168 45.7503 46.2781 45.6169L43.8188 45.0018C43.7704 44.9889 43.726 44.9695 43.6867 44.9397L40.9528 42.9104L35.5699 37.4444C35.5372 37.4107 35.5098 37.3693 35.4928 37.3278L33.4048 32.2477C33.2688 31.9135 33.0439 31.6196 32.7536 31.3982L30.4263 29.6137C30.0563 29.3288 29.6118 29.1825 29.162 29.1825C28.8574 29.1825 28.5488 29.2511 28.2612 29.3884L23.7778 31.5315C23.6536 31.5898 23.5425 31.5639 23.4849 31.5432C23.43 31.5212 23.3294 31.4668 23.2771 31.3399L22.1173 28.5272C22.0846 28.4495 22.0807 28.3627 22.1056 28.2824L22.6665 26.4811C22.7528 26.2014 22.7789 25.901 22.741 25.6135L22.4782 23.6193C22.452 23.4263 22.5841 23.2476 22.7776 23.2126L23.919 23.0028C24.3165 22.929 24.6813 22.7451 24.9729 22.4667L26.6163 20.905C26.7105 20.8143 26.8504 20.782 26.9746 20.8195L28.9057 21.3854C29.5882 21.59 30.3518 21.4165 30.8853 20.9361L31.5834 20.3067C31.6645 20.2329 31.7822 20.2031 31.8881 20.2174L33.7002 20.501C34.3461 20.611 35.0129 20.3922 35.4771 19.9364L37.2971 18.1597C37.3442 18.1117 37.4056 18.0794 37.4736 18.0651L39.0779 17.709C39.1903 17.6883 39.3158 17.7168 39.4048 17.7945L41.1751 19.386C41.3686 19.5608 41.5909 19.6942 41.8314 19.7836L44.4215 20.7587C44.5719 20.8156 44.6673 20.9607 44.6595 21.1187L44.5549 23.0158C44.5484 23.1466 44.4751 23.2282 44.4333 23.2657C44.3915 23.302 44.2973 23.3836 44.1679 23.3577L42.8434 23.2864C41.753 23.2346 40.8704 23.9611 40.6926 24.9855L40.3004 27.2426L39.7133 29.5489C39.5041 30.3777 39.8428 31.257 40.5553 31.7387L43.7207 33.8754C43.7756 33.913 43.8201 33.9661 43.8489 34.0295L45.2492 37.1452C45.3028 37.2618 45.3642 37.3719 45.4374 37.4742L47.7582 40.7971C48.1766 41.3927 48.8866 41.7268 49.6161 41.6725L53.0286 41.4135C53.1921 41.4005 53.2967 41.4666 53.3699 41.5831L53.5752 41.903C53.6628 42.0389 53.6484 42.2202 53.5386 42.342C53.1045 42.8237 52.928 43.4647 53.0535 44.0979C53.179 44.7312 53.5856 45.2582 54.1714 45.5418L61.8659 49.283C61.9966 49.3478 62.0463 49.4552 62.0633 49.5135C62.0816 49.5744 62.1012 49.6922 62.0293 49.8178Z" fill="white" stroke="white"/>
</svg>
