<svg width="84" height="84" viewBox="0 0 84 84" fill="none" xmlns="http://www.w3.org/2000/svg">
<circle cx="41.6569" cy="42.1544" r="41.6413" fill="#8C52FF"/>
<path d="M62.7793 27.3452C62.7819 25.9313 62.2318 24.5723 61.2463 23.5577C60.2609 22.543 58.9178 21.953 57.5034 21.9133C56.089 21.8736 54.7149 22.3874 53.674 23.3451C52.6331 24.3028 52.0075 25.6289 51.9307 27.0407L35.0182 30.4199C34.6227 29.5987 34.0264 28.8904 33.2844 28.3604C32.5425 27.8304 31.6788 27.4958 30.7732 27.3876C29.8676 27.2793 28.9494 27.4009 28.1032 27.7411C27.2571 28.0813 26.5105 28.6291 25.9323 29.3339C25.3541 30.0387 24.963 30.8778 24.7953 31.7736C24.6275 32.6694 24.6883 33.593 24.9723 34.459C25.2562 35.3251 25.754 36.1056 26.4197 36.7286C27.0854 37.3515 27.8975 37.7968 28.781 38.0231V49.2804C27.8532 49.5181 27.0049 49.9969 26.3222 50.6682C25.6395 51.3394 25.1466 52.1792 24.8938 53.1023C24.6409 54.0254 24.637 54.9989 24.8824 55.9241C25.1278 56.8492 25.6138 57.6929 26.291 58.3697C26.9683 59.0464 27.8127 59.532 28.7385 59.7772C29.6644 60.0225 30.6386 60.0185 31.5625 59.7659C32.4863 59.5132 33.3267 59.0208 33.9985 58.3386C34.6703 57.6564 35.1495 56.8087 35.3874 55.8817H46.6533C46.8794 56.7652 47.3248 57.5774 47.9483 58.2434C48.5718 58.9093 49.3533 59.4074 50.2205 59.6916C51.0877 59.9757 52.0126 60.0368 52.9097 59.8692C53.8068 59.7016 54.6471 59.3106 55.3529 58.7325C56.0587 58.1544 56.6072 57.4077 56.9477 56.5617C57.2882 55.7156 57.4097 54.7974 57.301 53.8919C57.1923 52.9865 56.8568 52.1231 56.3257 51.3815C55.7945 50.6399 55.0848 50.0442 54.2622 49.6493L57.6443 32.7501C59.0289 32.6743 60.3321 32.0723 61.2868 31.0674C62.2415 30.0625 62.7755 28.7308 62.7793 27.3452ZM57.3395 24.6274C57.8775 24.6274 58.4033 24.7868 58.8506 25.0855C59.2979 25.3841 59.6465 25.8085 59.8524 26.3051C60.0582 26.8018 60.1121 27.3482 60.0071 27.8754C59.9022 28.4026 59.6432 28.8869 59.2628 29.2669C58.8824 29.647 58.3978 29.9059 57.8702 30.0107C57.3426 30.1156 56.7957 30.0618 56.2987 29.8561C55.8017 29.6504 55.3769 29.302 55.0781 28.8551C54.7792 28.4082 54.6197 27.8827 54.6197 27.3452C54.6205 26.6246 54.9073 25.9339 55.4172 25.4244C55.9271 24.9149 56.6184 24.6283 57.3395 24.6274ZM27.421 32.7807C27.421 32.2432 27.5805 31.7177 27.8794 31.2708C28.1783 30.8239 28.6031 30.4755 29.1 30.2698C29.597 30.0641 30.1439 30.0103 30.6715 30.1152C31.1991 30.22 31.6837 30.4789 32.0641 30.859C32.4445 31.239 32.7035 31.7233 32.8085 32.2505C32.9134 32.7777 32.8596 33.3241 32.6537 33.8208C32.4479 34.3174 32.0992 34.7418 31.652 35.0404C31.2047 35.3391 30.6788 35.4985 30.1409 35.4985C29.4198 35.4976 28.7285 35.211 28.2186 34.7015C27.7087 34.192 27.4219 33.5013 27.421 32.7807ZM30.1409 57.2406C29.603 57.2406 29.0771 57.0812 28.6298 56.7825C28.1825 56.4839 27.8339 56.0594 27.6281 55.5628C27.4222 55.0662 27.3683 54.5198 27.4733 53.9926C27.5782 53.4654 27.8373 52.9811 28.2177 52.601C28.598 52.221 29.0827 51.9621 29.6103 51.8573C30.1379 51.7524 30.6847 51.8062 31.1817 52.0119C31.6787 52.2176 32.1035 52.566 32.4024 53.0129C32.7012 53.4598 32.8608 53.9853 32.8608 54.5228C32.8599 55.2433 32.5731 55.9341 32.0632 56.4436C31.5533 56.9531 30.862 57.2397 30.1409 57.2406ZM46.6533 53.1639H35.3874C35.1437 52.2297 34.6551 51.3773 33.972 50.6947C33.2888 50.012 32.4358 49.5238 31.5008 49.2804V38.0231C32.612 37.7344 33.6027 37.1007 34.3304 36.2133C35.058 35.3259 35.485 34.2306 35.5498 33.0852L52.4623 29.706C52.9956 30.8011 53.8812 31.6859 54.9772 32.2187L51.5951 49.1178C50.4488 49.1827 49.3526 49.6094 48.4646 50.3365C47.5765 51.0636 46.9423 52.0536 46.6533 53.1639ZM51.8998 57.2406C51.3619 57.2406 50.836 57.0812 50.3887 56.7825C49.9415 56.4839 49.5928 56.0594 49.387 55.5628C49.1811 55.0662 49.1273 54.5198 49.2322 53.9926C49.3372 53.4654 49.5962 52.9811 49.9766 52.601C50.357 52.221 50.8416 51.9621 51.3692 51.8573C51.8968 51.7524 52.4437 51.8062 52.9407 52.0119C53.4377 52.2176 53.8624 52.566 54.1613 53.0129C54.4602 53.4598 54.6197 53.9853 54.6197 54.5228C54.6189 55.2433 54.332 55.9341 53.8221 56.4436C53.3122 56.9531 52.6209 57.2397 51.8998 57.2406Z" fill="white"/>
</svg>
