<svg width="111" height="183" viewBox="0 0 111 183" fill="none" xmlns="http://www.w3.org/2000/svg">
<path id="Vector" d="M8.42931 2.00296C15.2962 4.0689 21.8627 7.02594 27.961 10.7986C31.9049 13.1327 36.1753 15.8984 40.6303 18.9837C45.4177 22.2603 49.972 25.8651 54.2603 29.7723C56.5614 31.8843 58.7211 34.1453 60.7255 36.5407C62.8361 39.0026 64.7208 41.6494 66.357 44.4492C68.0666 47.2986 69.4326 50.3405 70.4266 53.5113C71.4764 56.7001 72.0877 60.0167 72.2437 63.3702L72.2545 63.9258C72.0711 63.8767 71.8855 63.7901 71.6937 63.7264C64.4371 61.3591 56.6079 61.4122 49.384 63.8778C45.7336 65.1678 42.384 67.1874 39.5393 69.8135C36.5576 72.5623 34.3302 76.0295 33.0699 79.8841C32.3438 81.8963 31.9429 84.0113 31.8824 86.1497C31.797 88.5455 32.2589 90.9293 33.2329 93.1198C34.2321 95.2228 35.664 97.0912 37.4348 98.6029C39.2057 100.115 41.2756 101.235 43.5094 101.892C47.5567 103.08 51.8922 102.812 55.7622 101.134C59.3151 99.6184 62.5344 97.4174 65.2361 94.6569C67.9164 91.9654 70.1652 88.8765 71.9031 85.499C74.0625 81.279 75.4872 76.7218 76.1158 72.0232C77.0424 72.5617 77.9323 73.1613 78.7794 73.8179C83.8052 77.6554 87.9153 82.562 90.8123 88.1828C93.5492 93.4056 95.4799 99.0126 96.5389 104.813C97.4898 109.874 97.8196 115.032 97.5209 120.172C97.1666 124.535 96.4196 128.857 95.2891 133.086C93.5889 139.719 91.1664 146.147 88.0653 152.252C86.0179 156.365 83.6617 160.316 81.0169 164.072C78.8741 167.072 77.2185 169.171 75.8936 170.769C74.7677 172.175 73.9871 173.071 73.4138 173.789L73.5347 172.421C73.8794 168.522 74.1259 164.989 74.2625 162.004C74.5211 156.042 74.427 152.221 73.7232 152.143C73.0195 152.065 72.0401 155.537 70.9296 161.332C70.3598 164.238 69.7778 167.693 69.1977 171.554L68.9774 173.018C68.8758 173.647 68.8285 174.284 68.836 174.921C68.8476 175.33 68.8947 175.737 68.9767 176.138C69.08 176.648 69.2538 177.141 69.4931 177.603C69.986 178.554 70.7695 179.324 71.7298 179.799C72.9899 180.328 74.3383 180.614 75.7045 180.643L78.859 180.972C96.3894 182.476 110.644 182.635 110.653 181.274C110.661 179.913 96.4633 177.57 78.9245 176.052L76.6136 175.875C77.4009 175.281 78.1482 174.636 78.8506 173.944C80.9872 171.924 82.9673 169.744 84.7738 167.424C87.7868 163.636 90.4446 159.579 92.7137 155.303C96.1638 148.933 98.8517 142.179 100.722 135.18C101.971 130.579 102.789 125.872 103.163 121.119C103.526 115.441 103.176 109.739 102.122 104.147C100.944 97.6821 98.7818 91.4358 95.7105 85.6261C92.3372 79.1354 87.5514 73.4836 81.7053 69.0867C80.0261 67.8128 78.2222 66.7121 76.3212 65.8016C76.3137 65.0503 76.3062 64.2991 76.2467 63.5584C76.0177 59.8023 75.2844 56.0941 74.0664 52.5336C72.8992 49.0766 71.3332 45.7674 69.4002 42.6728C67.5835 39.703 65.5007 36.9042 63.1776 34.3112C61.0368 31.8516 58.7356 29.5362 56.2892 27.3803C51.8192 23.4687 47.0668 19.8921 42.0707 16.6796C37.4439 13.6547 33.0706 11.0131 28.9509 8.75457C22.6059 5.13578 15.7613 2.47397 8.63856 0.85529C6.74381 0.452596 4.82093 0.196062 2.88688 0.0879599C1.56933 0.0542848 0.930395 0.0550459 0.885157 0.178038C0.839918 0.30103 3.63667 0.681934 8.44609 2.03203L8.42931 2.00296ZM70.2914 69.4185C70.8353 69.5889 71.367 69.805 71.8987 70.0212C71.3399 74.5743 69.9456 78.9853 67.7859 83.0324C66.2016 85.9841 64.1755 88.6762 61.7776 91.0156C59.4459 93.3331 56.6795 95.1674 53.6371 96.413C50.7524 97.6124 47.5397 97.768 44.5525 96.8531C43.0802 96.4212 41.7154 95.6839 40.547 94.6894C39.3786 93.6949 38.4328 92.4653 37.7713 91.0809C36.7138 88.1609 36.7811 84.9519 37.9601 82.0788C38.9983 79.035 40.7989 76.3078 43.1903 74.1574C45.5802 72.0411 48.3726 70.4289 51.4003 69.4173C54.4345 68.3835 57.6178 67.8547 60.8233 67.8519C64.0379 67.8282 67.2333 68.348 70.2746 69.3895" fill="#FF914D"/>
</svg>
