<svg width="93" height="159" viewBox="0 0 93 159" fill="none" xmlns="http://www.w3.org/2000/svg">
<path d="M7.61428 152.319C5.6749 146.902 4.45439 141.254 3.98397 135.52C3.61152 131.862 3.36207 127.787 3.23114 123.442C3.06528 118.79 3.22267 114.133 3.70217 109.503C3.9694 107.011 4.40033 104.54 4.99214 102.105C5.57629 99.5692 6.38752 97.0914 7.41605 94.7013C8.44174 92.2402 9.75554 89.9091 11.33 87.7567C12.8894 85.5598 14.7406 83.585 16.8326 81.8866L17.1864 81.6149C17.2421 81.7567 17.2746 81.9178 17.3249 82.0719C19.2555 87.8843 23.0226 92.913 28.0596 96.4016C30.6334 98.1435 33.5351 99.3436 36.5879 99.9288C39.7853 100.544 43.0871 100.33 46.1781 99.307C47.8242 98.8171 49.3816 98.0682 50.7919 97.0885C52.3803 96.0022 53.7 94.5683 54.6508 92.8958C55.5329 91.2489 56.0572 89.4344 56.1895 87.571C56.3217 85.7077 56.0588 83.8374 55.4181 82.0825C54.2557 78.904 52.0154 76.233 49.0865 74.534C46.4134 72.9626 43.4566 71.9331 40.3851 71.5042C37.3686 71.0563 34.3009 71.0763 31.2904 71.5635C27.5346 72.1801 23.9114 73.4316 20.5764 75.2644C20.4825 74.4096 20.4455 73.5496 20.4658 72.6899C20.5486 67.6172 21.7587 62.6263 24.0086 58.0782C26.0777 53.8231 28.7793 49.9054 32.0216 46.4582C34.8375 43.4332 38.0122 40.763 41.4755 38.5067C44.4628 36.6568 47.611 35.0799 50.8818 33.795C55.9778 31.7321 61.2849 30.2336 66.7078 29.3266C70.3405 28.689 74.0164 28.3276 77.7038 28.2455C80.6636 28.1993 82.8089 28.268 84.4729 28.3619C85.9178 28.419 86.869 28.4959 87.6065 28.5237L86.6652 29.0974C83.9816 30.7328 81.5818 32.2568 79.5884 33.5909C75.6137 36.2643 73.1904 38.1453 73.4755 38.6368C73.7607 39.1283 76.4703 38.1065 80.7433 36.0625C82.8922 35.0459 85.4018 33.7754 88.1727 32.3103L89.2236 31.755C89.6784 31.5209 90.1122 31.2481 90.5202 30.9396C90.7789 30.7373 91.0194 30.513 91.2392 30.2691C91.5194 29.9594 91.7551 29.6123 91.9394 29.2377C92.3191 28.4663 92.4425 27.5939 92.2917 26.7476C92.0324 25.6823 91.5744 24.6754 90.9418 23.7797L89.6506 21.5864C82.2638 9.55344 75.5702 0.275513 74.6868 0.91852C73.8035 1.56151 79.0594 11.843 86.4408 23.8883L87.4283 25.4644C86.6693 25.2391 85.8963 25.064 85.1143 24.9403C82.7906 24.5235 80.4385 24.2837 78.0785 24.2229C74.1948 24.0826 70.3064 24.3 66.4626 24.8721C60.7025 25.68 55.0576 27.1628 49.6445 29.2899C46.0767 30.6755 42.646 32.3908 39.3971 34.4133C35.5558 36.8847 32.0393 39.827 28.9296 43.1714C25.3146 47.012 22.3104 51.3838 20.0216 56.1344C17.4368 61.4044 16.0675 67.1865 16.0144 73.0552C15.992 74.7462 16.1411 76.4351 16.4592 78.096C15.9775 78.4588 15.4957 78.8216 15.0456 79.2129C12.7283 81.1502 10.6824 83.3903 8.96298 85.8729C7.28627 88.2734 5.8951 90.8609 4.81762 93.5832C3.76522 96.1709 2.95024 98.8488 2.38274 101.584C1.81447 104.138 1.41587 106.726 1.18956 109.333C0.793864 114.082 0.749209 118.854 1.05597 123.61C1.30784 128.037 1.68637 132.119 2.19158 135.855C2.87895 141.675 4.42279 147.361 6.77311 152.731C7.41635 154.146 8.16742 155.509 9.01971 156.809C9.62613 157.676 9.93126 158.088 10.0323 158.058C10.1333 158.029 9.04593 156.042 7.62506 152.294L7.61428 152.319ZM21.6707 80.2653C21.5214 79.833 21.4075 79.3868 21.2937 78.9406C24.5015 77.132 28.0158 75.9305 31.66 75.3965C34.3221 75.0129 37.0273 75.0383 39.6818 75.4716C42.2907 75.8727 44.7946 76.7846 47.0498 78.1551C49.2 79.4459 50.8323 81.4457 51.6655 83.8099C52.0884 84.9662 52.2629 86.1985 52.1775 87.4265C52.0921 88.6546 51.7487 89.851 51.1698 90.9376C49.7876 93.0114 47.6824 94.4968 45.2643 95.1046C42.803 95.8846 40.1827 96.0215 37.6533 95.5023C35.1467 94.9678 32.7739 93.9333 30.6768 92.4608C28.5623 90.9946 26.703 89.1916 25.1729 87.1237C23.6249 85.0599 22.4372 82.7494 21.6599 80.2899" fill="#FF914D"/>
</svg>
