<svg width="188" height="258" viewBox="0 0 188 258" fill="none" xmlns="http://www.w3.org/2000/svg">
<path d="M169.795 50.2114C168.168 54.2143 162.396 53.9084 161.201 49.7559L155.169 28.7904L135.556 19.2153C131.67 17.3202 132.372 11.5852 136.6 10.6775L182.149 0.919565C182.958 0.745188 183.8 0.794689 184.584 1.06274C185.367 1.3308 186.063 1.80726 186.595 2.44086C187.128 3.07447 187.478 3.84125 187.607 4.6587C187.737 5.47616 187.64 6.31335 187.329 7.08021L169.795 50.2114Z" fill="#8C52FF"/>
<path d="M112 143.091V100H68.9091V114.364H-2.90909V100H-46V143.091H-31.6364V214.909H-46V258H-2.90909V243.636H68.9091V258H112V214.909H97.6364V143.091H112ZM-31.6364 114.364H-17.2727V128.727H-31.6364V114.364ZM-17.2727 243.636H-31.6364V229.273H-17.2727V243.636ZM68.9091 229.273H-2.90909V214.909H-17.2727V143.091H-2.90909V128.727H68.9091V143.091H83.2727V214.909H68.9091V229.273ZM97.6364 243.636H83.2727V229.273H97.6364V243.636ZM83.2727 128.727V114.364H97.6364V128.727H83.2727ZM45.4245 193.364H20.36L15.1173 207.727H3.48272L27.9009 143.091H37.9555L62.4455 207.727H50.7391L45.4245 193.364ZM23.5918 184.315H42.3364L33 156.808L23.5918 184.315Z" fill="black"/>
</svg>
