<svg width="65" height="111" viewBox="0 0 65 111" fill="none" xmlns="http://www.w3.org/2000/svg">
<path d="M63 17.1818V0H45.8182V5.72727H17.1818V0H0V17.1818H5.72727V45.8182H0V63H17.1818V57.2727H45.8182V63H63V45.8182H57.2727V17.1818H63ZM5.72727 5.72727H11.4545V11.4545H5.72727V5.72727ZM11.4545 57.2727H5.72727V51.5455H11.4545V57.2727ZM45.8182 51.5455H17.1818V45.8182H11.4545V17.1818H17.1818V11.4545H45.8182V17.1818H51.5455V45.8182H45.8182V51.5455ZM57.2727 57.2727H51.5455V51.5455H57.2727V57.2727ZM51.5455 11.4545V5.72727H57.2727V11.4545H51.5455ZM36.4541 37.2273H26.46L24.3695 42.9545H19.7305L29.4668 17.1818H33.4759L43.2409 42.9545H38.5732L36.4541 37.2273ZM27.7486 33.6191H35.2227L31.5 22.6514L27.7486 33.6191Z" fill="black"/>
<path d="M62.4036 88.0236C64.7809 88.9795 64.6229 92.429 62.1683 93.1589L49.7755 96.8454L44.183 108.599C43.0762 110.928 39.6768 110.532 39.1223 108.009L33.1607 80.8398C33.0542 80.3569 33.0801 79.8538 33.2358 79.3847C33.3914 78.9156 33.6708 78.4982 34.0439 78.1774C34.417 77.8567 34.8698 77.6447 35.3534 77.5642C35.837 77.4838 36.3332 77.538 36.7887 77.7209L62.4036 88.0236Z" fill="#8C52FF"/>
</svg>
