<svg width="77" height="77" viewBox="0 0 77 77" fill="none" xmlns="http://www.w3.org/2000/svg">
<path d="M38.2692 0.247253C17.2821 0.247253 0.269531 17.2709 0.269531 38.2695C0.269531 59.2674 17.2827 76.2917 38.2692 76.2917C59.2557 76.2917 76.2695 59.2674 76.2695 38.2695C76.2695 17.2709 59.2557 0.247253 38.2692 0.247253ZM56.3679 33.8909C55.9158 39.3023 51.9597 45.6163 48.3051 47.4203C44.6492 49.2244 40.7424 49.2244 38.4893 48.1218C38.4893 48.1218 35.5845 46.3678 35.1843 45.8662C34.934 46.0667 34.1324 51.0277 32.9306 54.1341C31.7288 57.2405 30.0763 60.2976 27.7221 61.7005C26.8712 58.8946 27.4218 51.9797 29.0743 45.8662C30.7281 39.7533 31.3786 36.8968 31.3786 36.8968C31.3786 36.8968 29.2754 32.8877 31.3287 28.4789C33.382 24.0695 37.2376 25.0714 37.9893 25.7729C38.741 26.4744 40.0925 27.0253 38.9907 31.5354C37.8888 36.0454 36.0359 40.4548 37.5885 42.8604C38.5392 44.2134 43.5979 45.3152 46.4516 41.5074C48.7559 37.6489 49.658 35.8955 49.7579 29.8319C49.7579 29.8319 49.8656 20.1038 41.1931 19.5102C33.882 19.0085 30.5054 22.134 28.2734 24.32C25.9198 26.625 24.1674 32.9377 26.3705 36.4457C27.4724 37.9986 27.5224 38.9006 27.3719 39.8026C27.2214 40.7046 26.5203 42.0576 26.5203 42.0576C26.5203 42.0576 20.3111 40.9558 20.0109 33.3387C19.7099 25.7223 23.2653 21.3628 26.4205 18.9579C29.5763 16.553 35.0509 13.4795 45.8681 15.484C53.0123 17.4228 57.519 23.5692 56.3679 33.8909Z" fill="white"/>
</svg>
