<svg width="76" height="76" viewBox="0 0 76 76" fill="none" xmlns="http://www.w3.org/2000/svg">
<g clip-path="url(#clip0_357_4)">
<path fill-rule="evenodd" clip-rule="evenodd" d="M0 38C0 17.0132 17.0132 0 38 0C58.9868 0 76 17.0132 76 38C76 58.9868 58.9868 76 38 76C17.0132 76 0 58.9868 0 38ZM38.0019 17.7333C32.4978 17.7333 31.807 17.7574 29.6452 17.8557C27.4876 17.9545 26.015 18.2962 24.7263 18.7973C23.3933 19.3149 22.2626 20.0075 21.1361 21.1343C20.0087 22.2609 19.3162 23.3915 18.7969 24.7241C18.2945 26.0132 17.9525 27.4864 17.8554 29.643C17.7587 31.8049 17.7333 32.496 17.7333 38.0002C17.7333 43.5043 17.7579 44.1931 17.8557 46.3548C17.955 48.5124 18.2965 49.985 18.7973 51.2737C19.3154 52.6067 20.0078 53.7374 21.1348 54.8639C22.2609 55.9913 23.3915 56.6854 24.7238 57.2031C26.0132 57.7043 27.4864 58.0458 29.6435 58.1446C31.8054 58.2431 32.4957 58.2671 37.9994 58.2671C43.504 58.2671 44.1926 58.2431 46.3545 58.1446C48.5119 58.0458 49.9863 57.7043 51.2759 57.2031C52.6085 56.6854 53.7374 55.9913 54.8635 54.8639C55.9908 53.7374 56.6833 52.6067 57.2027 51.2742C57.7009 49.985 58.0429 48.5119 58.1443 46.3553C58.2413 44.1934 58.2667 43.5043 58.2667 38.0002C58.2667 32.496 58.2413 31.8054 58.1443 29.6435C58.0429 27.4859 57.7009 26.0132 57.2027 24.7245C56.6833 23.3915 55.9908 22.2609 54.8635 21.1343C53.7361 20.007 52.6088 19.3146 51.2747 18.7973C49.9825 18.2962 48.5091 17.9545 46.3514 17.8557C44.1896 17.7574 43.5014 17.7333 37.9956 17.7333H38.0019Z" fill="white"/>
<path fill-rule="evenodd" clip-rule="evenodd" d="M36.1841 21.3856C36.7237 21.3848 37.3258 21.3856 38.0022 21.3856C43.4134 21.3856 44.0549 21.4051 46.1917 21.5022C48.1677 21.5926 49.2403 21.9227 49.9547 22.2001C50.9004 22.5674 51.5747 23.0065 52.2836 23.7158C52.9929 24.4251 53.4321 25.1008 53.8003 26.0466C54.0777 26.7601 54.4083 27.8326 54.4982 29.8086C54.5953 31.945 54.6165 32.5869 54.6165 37.9956C54.6165 43.4042 54.5953 44.0461 54.4982 46.1825C54.4078 48.1585 54.0777 49.2311 53.8003 49.9445C53.4329 50.8904 52.9929 51.5638 52.2836 52.2728C51.5743 52.9821 50.9009 53.4212 49.9547 53.7885C49.2411 54.0672 48.1677 54.3965 46.1917 54.4869C44.0553 54.584 43.4134 54.6051 38.0022 54.6051C32.5906 54.6051 31.9492 54.584 29.8128 54.4869C27.8368 54.3957 26.7642 54.0655 26.0495 53.7881C25.1036 53.4207 24.428 52.9817 23.7187 52.2723C23.0093 51.563 22.5703 50.8891 22.2022 49.9429C21.9248 49.2293 21.5942 48.1569 21.5042 46.1809C21.407 44.0444 21.3877 43.4027 21.3877 37.9905C21.3877 32.5784 21.407 31.94 21.5042 29.8036C21.5945 27.8276 21.9248 26.755 22.2022 26.0406C22.5695 25.0949 23.0093 24.4193 23.7187 23.71C24.428 23.0006 25.1036 22.5616 26.0495 22.1933C26.7639 21.9146 27.8368 21.5853 29.8128 21.4946C31.6824 21.4102 32.4069 21.3848 36.1841 21.3806V21.3856ZM48.8205 24.7507C47.4779 24.7507 46.3885 25.8389 46.3885 27.1819C46.3885 28.5246 47.4779 29.6139 48.8205 29.6139C50.1632 29.6139 51.2525 28.5246 51.2525 27.1819C51.2525 25.8392 50.1632 24.7507 48.8205 24.7507ZM38.0022 27.5923C32.2544 27.5923 27.5944 32.2525 27.5944 38.0002C27.5944 43.748 32.2544 48.406 38.0022 48.406C43.7501 48.406 48.4084 43.748 48.4084 38.0002C48.4084 32.2525 43.7501 27.5923 38.0022 27.5923Z" fill="white"/>
<path fill-rule="evenodd" clip-rule="evenodd" d="M38.0017 31.2446C41.7325 31.2446 44.7573 34.269 44.7573 38.0002C44.7573 41.731 41.7325 44.7558 38.0017 44.7558C34.2704 44.7558 31.2461 41.731 31.2461 38.0002C31.2461 34.269 34.2704 31.2446 38.0017 31.2446Z" fill="white"/>
</g>
<defs>
<clipPath id="clip0_357_4">
<rect width="76" height="76" fill="white"/>
</clipPath>
</defs>
</svg>
