<svg width="127" height="131" viewBox="0 0 127 131" fill="none" xmlns="http://www.w3.org/2000/svg">
<path d="M125.241 61.8024C125.241 95.935 97.5984 123.605 63.4998 123.605C29.4012 123.605 1.75879 95.935 1.75879 61.8024C1.75879 27.6699 29.4012 0 63.4998 0C97.5984 0 125.241 27.6699 125.241 61.8024Z" fill="#8C52FF"/>
<path d="M65.7858 31.767C65.5545 31.5244 65.2771 31.3315 64.9702 31.1997C64.6633 31.0679 64.3333 31 63.9999 31C63.6664 31 63.3364 31.0679 63.0296 31.1997C62.7227 31.3315 62.4453 31.5244 62.2139 31.767C59.9407 34.3266 40 57.1395 40 69.7546C40 76.1849 42.5286 82.3518 47.0294 86.8987C51.5303 91.4456 57.6348 94 64 94C70.3652 94 76.4697 91.4456 80.9706 86.8987C85.4714 82.3518 88 76.1849 88 69.7546C88 57.1395 68.0594 34.3266 65.7858 31.767ZM64 84.3019C60.1822 84.2976 56.5219 82.7636 53.8223 80.0364C51.1227 77.3092 49.6042 73.6115 49.6 69.7546C49.6 69.1116 49.8529 68.4949 50.3029 68.0402C50.753 67.5855 51.3635 67.3301 52 67.3301C52.6365 67.3301 53.247 67.5855 53.6971 68.0402C54.1471 68.4949 54.4 69.1116 54.4 69.7546C54.4025 72.326 55.4147 74.7913 57.2145 76.6095C59.0143 78.4277 61.4547 79.4503 64 79.4528C64.6365 79.4528 65.247 79.7082 65.6971 80.1629C66.1471 80.6176 66.4 81.2343 66.4 81.8773C66.4 82.5203 66.1471 83.137 65.6971 83.5917C65.247 84.0464 64.6365 84.3019 64 84.3019Z" fill="#FF914D"/>
</svg>
