<svg width="437" height="584" viewBox="0 0 437 584" fill="none" xmlns="http://www.w3.org/2000/svg">
<path d="M124.166 459.4L123.366 426.4H132.566C139.366 426.4 145.566 425.8 151.166 424.6C156.766 423.4 161.232 421.067 164.566 417.6C167.899 414.133 169.566 409.067 169.566 402.4C169.566 396 167.632 391 163.766 387.4C159.899 383.667 154.766 381.8 148.366 381.8C141.699 381.8 136.499 383.667 132.766 387.4C129.032 391 127.166 395.933 127.166 402.2H102.966C102.832 394.2 104.566 387.067 108.166 380.8C111.766 374.533 116.966 369.6 123.766 366C130.699 362.4 138.966 360.6 148.566 360.6C157.499 360.6 165.366 362.267 172.166 365.6C179.099 368.933 184.499 373.733 188.366 380C192.366 386.133 194.366 393.667 194.366 402.6C194.366 411.8 192.299 419.4 188.166 425.4C184.166 431.4 178.632 435.867 171.566 438.8C164.632 441.733 156.566 443.267 147.366 443.4L146.766 459.4H124.166ZM135.566 504.4C130.899 504.4 127.032 502.933 123.966 500C121.032 497.067 119.566 493.533 119.566 489.4C119.566 485.133 121.032 481.533 123.966 478.6C127.032 475.667 130.899 474.2 135.566 474.2C140.232 474.2 144.032 475.667 146.966 478.6C149.899 481.533 151.366 485.133 151.366 489.4C151.366 493.533 149.899 497.067 146.966 500C144.032 502.933 140.232 504.4 135.566 504.4Z" fill="white"/>
<path d="M227.831 309.8L226.231 243.8H244.631C258.231 243.8 270.631 242.6 281.831 240.2C293.031 237.8 301.965 233.133 308.631 226.2C315.298 219.267 318.631 209.133 318.631 195.8C318.631 183 314.765 173 307.031 165.8C299.298 158.333 289.031 154.6 276.231 154.6C262.898 154.6 252.498 158.333 245.031 165.8C237.565 173 233.831 182.867 233.831 195.4H185.431C185.165 179.4 188.631 165.133 195.831 152.6C203.031 140.067 213.431 130.2 227.031 123C240.898 115.8 257.431 112.2 276.631 112.2C294.498 112.2 310.231 115.533 323.831 122.2C337.698 128.867 348.498 138.467 356.231 151C364.231 163.267 368.231 178.333 368.231 196.2C368.231 214.6 364.098 229.8 355.831 241.8C347.831 253.8 336.765 262.733 322.631 268.6C308.765 274.467 292.631 277.533 274.231 277.8L273.031 309.8H227.831ZM250.631 399.8C241.298 399.8 233.565 396.867 227.431 391C221.565 385.133 218.631 378.067 218.631 369.8C218.631 361.267 221.565 354.067 227.431 348.2C233.565 342.333 241.298 339.4 250.631 339.4C259.965 339.4 267.565 342.333 273.431 348.2C279.298 354.067 282.231 361.267 282.231 369.8C282.231 378.067 279.298 385.133 273.431 391C267.565 396.867 259.965 399.8 250.631 399.8Z" fill="white" fill-opacity="0.1"/>
<rect x="2.09795" y="286.098" width="295.804" height="295.804" rx="39.9021" stroke="#8C52FF" stroke-width="4.19589" stroke-dasharray="12.59 12.59"/>
<rect x="8.95913" y="259.5" width="362.804" height="362.804" rx="39.9021" transform="rotate(-45 8.95913 259.5)" stroke="white" stroke-opacity="0.1" stroke-width="4.19589"/>
</svg>
